<svg t="1692605573663" class="icon" viewBox="0 0 1024 1024" version="1.1" xmlns="http://www.w3.org/2000/svg" p-id="16860" width="128" height="128"><path d="M703.8 347.23C723.69 310.3 701 262 701 262c-51.14 0-88.07 34.09-88.07 34.09-19.89-11.37-85.23-11.37-85.23-11.37s-65.34 0-85.23 11.37c0 0-36.93-34.09-88.07-34.09 0 0-22.73 48.3-2.84 85.23 0 0-45.45 42.61-28.41 133.52 16 85.43 90.91 108 139.2 108 0 0-19.89 17-17 45.46 0 0-28.41 17-56.82 5.68s-42.61-39.77-42.61-39.77-28.48-36.98-56.92-22.78c0 0-8.52 8.52 22.73 22.73 0 0 22.73 34.09 31.25 54s54 36.93 99.43 25.57V745s0 5.68-11.36 8.52-11.34 8.48-5.66 8.48h204.55c5.68 0 5.68-5.68-5.68-8.52S612.89 745 612.89 745v-65.39s0.25-34.07 0-45.45A66.26 66.26 0 0 0 593 588.7c48.3 0 123.19-22.53 139.2-108 17-90.91-28.41-133.52-28.41-133.52z" fill="#ffffff" p-id="16861"></path></svg>